<svg width="13" height="13" viewBox="0 0 13 13" fill="none" xmlns="http://www.w3.org/2000/svg">
<g id="objects" clip-path="url(#clip0_1940_10676)">
<path id="Vector" d="M9.29972 13H3.70029C1.66031 13 0 11.3405 0 9.29972V3.70029C0 1.65949 1.65949 0 3.70029 0H9.30054C11.3405 0 13.0008 1.65949 13.0008 3.70029V9.30054C13.0008 11.3405 11.3413 13.0008 9.30054 13.0008L9.29972 13ZM3.70029 1.11429C2.27469 1.11429 1.11429 2.27387 1.11429 3.70029V9.30054C1.11429 10.7261 2.27387 11.8865 3.70029 11.8865H9.30054C10.7261 11.8865 11.8865 10.727 11.8865 9.30054V3.70029C11.8865 2.27469 10.727 1.11429 9.30054 1.11429H3.70029Z" fill="#231E1F"/>
<path id="Vector_2" d="M6.49975 9.82959C4.66402 9.82959 3.1709 8.33646 3.1709 6.50073C3.1709 4.665 4.66402 3.17188 6.49975 3.17188C8.33548 3.17188 9.82861 4.665 9.82861 6.50073C9.82861 8.33646 8.33548 9.82959 6.49975 9.82959ZM6.49975 4.28698C5.27841 4.28698 4.28518 5.28021 4.28518 6.50155C4.28518 7.7229 5.27841 8.71613 6.49975 8.71613C7.7211 8.71613 8.71432 7.7229 8.71432 6.50155C8.71432 5.28021 7.7211 4.28698 6.49975 4.28698Z" fill="#231E1F"/>
<path id="Vector_3" d="M10.7712 2.97937C10.7712 3.42163 10.413 3.77905 9.97156 3.77905C9.53013 3.77905 9.17188 3.4208 9.17188 2.97937C9.17188 2.53794 9.53013 2.17969 9.97156 2.17969C10.413 2.17969 10.7712 2.53794 10.7712 2.97937Z" fill="#231E1F"/>
</g>
<defs>
<clipPath id="clip0_1940_10676">
<rect width="13" height="13" fill="white"/>
</clipPath>
</defs>
</svg>
