<svg width="22" height="51" viewBox="0 0 22 51" fill="none" xmlns="http://www.w3.org/2000/svg">
<g clip-path="url(#clip0_676_1254)">
<path d="M0 26.8034C0.623136 26.9504 1.14605 27.2054 1.63649 27.5212C2.78393 28.2603 3.69891 29.2197 4.34711 30.4198C4.76562 31.1944 5.00133 32.0312 5.17068 32.8892C5.19249 32.9994 5.25188 33.1022 5.29411 33.2087C5.31916 33.2013 5.34422 33.1935 5.36974 33.1861C5.34143 33.0422 5.30802 32.8998 5.28529 32.755C5.1215 31.7135 4.93127 30.6752 4.80692 29.6287C4.71366 28.8463 4.73175 28.0514 4.64638 27.2681C4.6139 26.9698 4.43294 26.6867 4.31277 26.4C4.30024 26.3695 4.23946 26.3483 4.1977 26.3423C3.35556 26.2151 2.80713 25.6849 2.38165 25.0081C1.73949 23.9882 1.38686 22.8559 1.1892 21.6812C1.06671 20.9518 1.01474 20.2086 0.964167 19.4695C0.942824 19.162 1.00732 18.8489 1.03284 18.5382C1.05557 18.5239 1.07784 18.5092 1.10058 18.4949C1.46481 18.8075 1.85363 19.0961 2.18817 19.4372C3.36484 20.636 4.1397 22.0611 4.39211 23.719C4.50765 24.4779 4.45846 25.2616 4.47377 26.0343C4.47702 26.2068 4.47888 26.3649 4.64313 26.4876C4.66215 26.0832 4.68999 25.6955 4.69742 25.3077C4.72618 23.796 4.89925 22.298 5.11686 20.8033C5.14516 20.6106 5.02592 20.4008 5.0055 20.1957C4.97442 19.8854 4.83104 19.7 4.55312 19.529C3.7713 19.0481 3.44001 18.2574 3.27715 17.4059C2.95839 15.7397 2.97834 14.0679 3.32216 12.4054C3.38943 12.0808 3.51657 11.7687 3.63813 11.38C3.93462 11.7728 4.20512 12.0946 4.4348 12.4432C4.84125 13.061 5.1563 13.729 5.3405 14.4437C5.56507 15.3136 5.68432 16.1965 5.59384 17.1034C5.5145 17.8973 5.39015 18.6793 5.18321 19.4506C5.13635 19.6253 5.17625 19.8236 5.17625 20.0112C5.2027 20.014 5.22915 20.0168 5.25559 20.0195C5.2774 19.9513 5.30153 19.884 5.32055 19.8153C5.65834 18.6014 5.99102 17.3865 6.33622 16.1749C6.41324 15.9038 6.50511 15.6299 6.63828 15.3833C6.89579 14.9065 6.90878 14.3934 6.92549 13.8779C6.92781 13.8106 6.90182 13.718 6.85403 13.6765C6.10794 13.0264 5.8662 12.1661 5.82955 11.2297C5.78408 10.0711 6.00169 8.94475 6.29957 7.83133C6.50975 7.04478 6.78119 6.28267 7.21966 5.5888C7.26791 5.51273 7.32405 5.44173 7.42196 5.30433C7.62611 5.81195 7.83583 6.25824 7.98663 6.7239C8.29472 7.67365 8.37591 8.65337 8.33323 9.64923C8.29054 10.6386 8.1017 11.5925 7.71752 12.505C7.5811 12.8286 7.402 13.1343 7.26002 13.4556C7.19507 13.6022 7.17279 13.7668 7.13103 13.9236C7.15934 13.9337 7.18718 13.9443 7.21548 13.9545C7.34864 13.6871 7.48552 13.4211 7.61497 13.1518C8.3142 11.6963 9.18001 10.3408 10.0769 8.99962C10.2495 8.74097 10.2124 8.34355 10.2676 8.00929C10.2713 7.98716 10.2411 7.95581 10.2207 7.93414C9.79247 7.48554 9.65652 6.92768 9.62404 6.33523C9.56187 5.19691 9.85929 4.13651 10.3571 3.12497C10.8587 2.10514 11.4707 1.16322 12.3546 0.420935C12.395 0.387279 12.4381 0.357311 12.523 0.293225C12.5764 0.638088 12.6502 0.947911 12.6683 1.26142C12.768 3.02216 12.5606 4.73633 11.719 6.31541C11.4331 6.85161 11.035 7.33109 10.6643 7.81796C10.462 8.08352 10.411 8.143 10.4216 8.55563C10.5966 8.33756 10.7492 8.15268 10.8963 7.96365C11.8298 6.76585 12.8761 5.66902 13.9911 4.63997C14.2175 4.43111 14.3247 4.26329 14.3196 3.94563C14.3089 3.26282 14.6398 2.69804 15.0866 2.19735C15.7338 1.47258 16.5579 1.0226 17.458 0.691569C18.0765 0.464273 18.6978 0.242971 19.3701 0C19.2671 0.309823 19.1864 0.598899 19.0764 0.876449C18.5312 2.25405 17.6905 3.39238 16.3157 4.04706C15.8995 4.24531 15.4336 4.40576 14.9794 4.4408C14.5307 4.47584 14.2055 4.65426 13.9062 4.93181C12.9968 5.77506 12.1416 6.66995 11.3696 7.64092C11.3529 7.66213 11.3468 7.69209 11.3348 7.7216C11.6939 7.76955 11.7319 7.74096 11.8688 7.44682C12.2015 6.73127 12.7931 6.32371 13.5266 6.08258C14.2417 5.84791 14.9659 5.85805 15.6976 5.97331C16.3421 6.07474 16.9866 6.17387 17.7021 6.28498C17.4511 6.56253 17.2474 6.81841 17.0121 7.04202C16.0401 7.96826 14.8926 8.47126 13.5276 8.41409C12.9657 8.39058 12.4358 8.24904 11.9463 7.96273C11.866 7.9157 11.75 7.92077 11.6503 7.91847C11.583 7.91708 11.5106 7.96872 11.448 7.95673C11.1362 7.8968 10.9998 8.10288 10.8448 8.31036C9.95672 9.49985 9.17629 10.7553 8.47799 12.0623C8.43484 12.143 8.39958 12.2274 8.36432 12.3118C8.35643 12.3302 8.36339 12.3547 8.36339 12.3763C8.68075 12.3823 8.78422 12.3049 8.85011 12.0222C9.10206 10.9383 9.85047 10.326 10.8634 10.0084C11.344 9.85763 11.8517 9.7668 12.3537 9.71562C13.0817 9.64093 13.8162 9.6271 14.6082 9.58377C14.4639 9.80922 14.3465 10.0079 14.2143 10.196C13.645 11.0042 12.9615 11.6944 12.0651 12.1412C11.0995 12.6221 10.0982 12.8521 9.02921 12.4828C8.94059 12.4519 8.82691 12.4828 8.72669 12.4976C8.67565 12.505 8.63018 12.5557 8.57961 12.5612C8.19496 12.6022 8.0553 12.8812 7.91332 13.1868C7.13057 14.877 6.50047 16.6207 6.0105 18.4156C6.00308 18.4428 6.00958 18.4741 6.00958 18.5064C6.36267 18.4013 6.41278 18.339 6.41603 17.9909C6.42716 16.7507 7.05494 15.8697 8.05298 15.1979C8.80603 14.6912 9.64771 14.3745 10.4871 14.0513C10.8313 13.9185 11.1752 13.7844 11.5199 13.6516C11.5881 13.6253 11.6577 13.6032 11.7899 13.5566C11.6494 13.9531 11.5468 14.303 11.4034 14.6354C10.9858 15.6023 10.436 16.4824 9.63332 17.1883C8.93502 17.8024 8.16294 18.2708 7.22198 18.4128C7.20666 18.4151 7.19042 18.4202 7.17604 18.4174C6.69953 18.3275 6.32973 18.5313 6.0003 18.8411C5.94787 18.8904 5.8843 18.949 5.87038 19.0131C5.7168 19.7222 5.55301 20.4299 5.42959 21.1445C5.18089 22.5876 5.03706 24.0426 5.01339 25.5078C5.01339 25.535 5.02406 25.5622 5.03288 25.6051C5.28575 25.4092 5.38319 25.216 5.32751 24.879C5.15073 23.8107 5.44768 22.8315 6.0337 21.9338C6.66705 20.9642 7.56486 20.2616 8.4701 19.5668C8.84176 19.2814 9.20738 18.9877 9.58832 18.688C9.59852 18.7143 9.61708 18.7388 9.61615 18.7627C9.53821 20.8928 8.87192 22.7835 7.31292 24.305C6.86053 24.7466 6.32137 25.0509 5.72005 25.2552C5.60312 25.2948 5.51172 25.4124 5.41149 25.4977C5.38969 25.5161 5.3869 25.5572 5.3651 25.5751C4.93591 25.9352 4.97906 26.4226 5.00411 26.903C5.0403 27.5996 5.04587 28.3004 5.13032 28.9915C5.25884 30.0455 5.44351 31.0925 5.60591 32.1423C5.62586 32.27 5.65787 32.3954 5.68571 32.5286C5.91446 32.3133 5.92559 32.0496 5.82584 31.7979C5.69824 31.4761 5.58271 31.1331 5.55394 30.7919C5.44676 29.5222 5.93812 28.418 6.63457 27.4023C7.20713 26.5673 7.83954 25.7734 8.44505 24.961C8.57311 24.7891 8.69792 24.6152 8.87145 24.3787C8.92342 24.8379 8.98977 25.2317 9.00879 25.6277C9.06772 26.8739 8.89141 28.0869 8.40375 29.2423C7.94719 30.3239 7.34308 31.3009 6.33251 31.9726C6.23832 32.0353 6.17104 32.1483 6.11304 32.2502C6.05319 32.3553 6.04159 32.4913 5.97153 32.5863C5.76691 32.8652 5.82166 33.146 5.901 33.4494C6.4267 35.4526 7.14681 37.3807 8.13186 39.2078C8.14578 39.2332 8.16387 39.2562 8.18382 39.2857C8.32812 38.933 8.31003 38.8404 8.08546 38.5836C7.70313 38.1465 7.56533 37.6057 7.44283 37.0584C7.2113 36.0257 7.41128 35.0252 7.73422 34.0556C8.12026 32.897 8.581 31.7633 9.02782 30.5687C9.08628 30.6637 9.12062 30.7084 9.14335 30.7587C9.6194 31.8076 9.90568 32.9021 9.94327 34.0565C9.98735 35.4176 9.74375 36.7177 9.10391 37.9316C9.01854 38.0939 8.93177 38.265 8.8065 38.395C8.47938 38.7357 8.48588 39.1746 8.41535 39.5905C8.4019 39.6712 8.43762 39.7735 8.48124 39.8487C9.44262 41.5195 10.5854 43.0557 11.9468 44.4278C11.9616 44.443 11.9834 44.4513 12.0029 44.4633C12.0971 44.1157 12.0437 44.0041 11.7561 43.8187C11.2967 43.5232 10.9905 43.0935 10.7334 42.6228C10.2583 41.7523 10.1957 40.8026 10.262 39.8528C10.3465 38.6472 10.5084 37.4475 10.636 36.2447C10.6457 36.1548 10.6481 36.0639 10.6587 35.9012C10.8049 36.0639 10.92 36.1792 11.0202 36.306C11.9254 37.4475 12.498 38.7279 12.6831 40.1779C12.8395 41.4056 12.7369 42.5891 12.3101 43.7666C12.163 44.1724 12.143 44.6601 12.5931 45.0571C13.986 46.2867 15.4893 47.3388 17.1884 48.1065C17.2218 48.1217 17.2594 48.1286 17.2966 48.1401C17.336 47.8119 17.2812 47.7524 16.9936 47.7178C16.6131 47.6717 16.3115 47.455 16.0183 47.2286C15.2383 46.626 14.8114 45.8003 14.5924 44.8741C14.385 43.9976 14.2421 43.106 14.0755 42.2203C14.0134 41.8906 13.9628 41.5587 13.9085 41.2277C13.8964 41.1544 13.89 41.0801 13.9299 40.9547C14.2509 41.1576 14.585 41.342 14.8908 41.5656C16.3444 42.6302 17.1536 44.0894 17.4344 45.8358C17.5169 46.3513 17.433 46.8916 17.4552 47.419C17.4668 47.6901 17.5369 47.9603 17.5986 48.2268C17.6116 48.2821 17.6979 48.3365 17.7619 48.3623C19.0128 48.8649 20.2916 49.2748 21.6283 49.4882C21.9188 49.5348 21.9916 49.6459 22.0009 50.0438C21.6478 49.9843 21.2998 49.9331 20.9546 49.8663C20.0016 49.6828 19.0783 49.3979 18.1642 49.0737C17.9823 49.0092 17.7499 49.0908 17.5406 49.0973C17.3091 49.1042 17.1847 49.2282 17.072 49.4241C16.6024 50.2397 15.8387 50.6487 14.9492 50.8372C13.3114 51.1849 11.7319 50.9603 10.217 50.2771C9.94419 50.154 9.71127 49.9442 9.46025 49.7741C9.4584 49.7413 9.45701 49.7091 9.45515 49.6763C9.9312 49.3559 10.3901 49.0064 10.8861 48.721C11.9477 48.1111 13.0951 47.799 14.3317 47.8617C15.132 47.9022 15.8628 48.1761 16.5672 48.5325C16.7245 48.6122 16.8711 48.7155 17.033 48.7837C17.1485 48.8326 17.2812 48.8405 17.4061 48.8667C17.4153 48.8386 17.4241 48.81 17.4334 48.7819C17.2743 48.7026 17.1165 48.6196 16.9551 48.544C15.4527 47.8409 14.0816 46.9373 12.8441 45.8395C12.568 45.5947 12.24 45.6537 11.9333 45.585C11.8985 45.5772 11.8401 45.633 11.8057 45.6712C11.2438 46.2964 10.5186 46.5117 9.70431 46.4864C8.38937 46.4453 7.21455 45.9824 6.11397 45.295C5.54837 44.9418 5.01942 44.5495 4.61668 44.011C4.39814 43.7187 4.41021 43.7109 4.73732 43.5748C5.57203 43.2277 6.44665 43.0396 7.34401 43.0419C8.742 43.0451 10.0184 43.4347 11.0661 44.4047C11.3315 44.6505 11.5733 44.9206 11.8368 45.1682C11.9222 45.2484 12.0428 45.2918 12.1472 45.3517L12.1964 45.2839C12.1296 45.2139 12.0651 45.1419 11.996 45.0746C10.6894 43.8003 9.5911 42.3641 8.6042 40.8349C8.44412 40.5868 8.10216 40.454 7.84047 40.2728C7.82098 40.2595 7.76902 40.2816 7.73747 40.2977C6.67169 40.8321 5.6537 40.5891 4.70438 40.0326C3.61586 39.3945 2.7997 38.4582 2.11393 37.4148C1.67964 36.7546 1.49775 36.276 1.42676 35.7523C1.7961 35.7523 2.16497 35.7237 2.52781 35.7583C3.27576 35.8297 3.98937 36.0321 4.65659 36.3899C5.51775 36.8519 6.27544 37.4402 6.83826 38.2373C7.19971 38.7491 7.49248 39.3088 7.82516 39.8418C7.90497 39.969 8.02143 40.0737 8.12119 40.1889L8.19403 40.1401C8.16341 40.0769 8.1365 40.0119 8.1017 39.9506C7.04937 38.0893 6.24899 36.1248 5.61518 34.087C5.52424 33.7951 5.27647 33.5508 5.09227 33.2908C5.07046 33.2599 4.99251 33.2506 4.94472 33.2585C4.00422 33.4152 3.279 32.9938 2.64195 32.3843C1.80816 31.5867 1.20962 30.6213 0.7679 29.5673C0.508531 28.9491 0.299272 28.3082 0.102541 27.6674C0.0218074 27.4037 0.0338711 27.1118 0.000463988 26.8034H0Z" fill="#231E1F"/>
</g>
<defs>
<clipPath id="clip0_676_1254">
<rect width="22" height="51" fill="white"/>
</clipPath>
</defs>
</svg>
