<svg width="22" height="51" viewBox="0 0 22 51" fill="none" xmlns="http://www.w3.org/2000/svg">
<g clip-path="url(#clip0_676_1256)">
<path d="M22 26.8034C21.3769 26.9504 20.8539 27.2054 20.3635 27.5212C19.2161 28.2603 18.3011 29.2197 17.6529 30.4198C17.2344 31.1944 16.9987 32.0312 16.8293 32.8892C16.8075 32.9994 16.7481 33.1022 16.7059 33.2087C16.6808 33.2013 16.6558 33.1935 16.6303 33.1861C16.6586 33.0422 16.692 32.8998 16.7147 32.755C16.8785 31.7135 17.0687 30.6752 17.1931 29.6287C17.2863 28.8463 17.2682 28.0514 17.3536 27.2681C17.3861 26.9698 17.5671 26.6867 17.6872 26.4C17.6998 26.3695 17.7605 26.3483 17.8023 26.3423C18.6444 26.2151 19.1929 25.6849 19.6183 25.0081C20.2605 23.9882 20.6131 22.8559 20.8108 21.6812C20.9333 20.9518 20.9853 20.2086 21.0358 19.4695C21.0572 19.162 20.9927 18.8489 20.9672 18.5382C20.9444 18.5239 20.9222 18.5092 20.8994 18.4949C20.5352 18.8075 20.1464 19.0961 19.8118 19.4372C18.6352 20.636 17.8603 22.0611 17.6079 23.719C17.4924 24.4779 17.5415 25.2616 17.5262 26.0343C17.523 26.2068 17.5211 26.3649 17.3569 26.4876C17.3378 26.0832 17.31 25.6955 17.3026 25.3077C17.2738 23.796 17.1007 22.298 16.8831 20.8033C16.8548 20.6106 16.9741 20.4008 16.9945 20.1957C17.0256 19.8854 17.169 19.7 17.4469 19.529C18.2287 19.0481 18.56 18.2574 18.7229 17.4059C19.0416 15.7397 19.0217 14.0679 18.6778 12.4054C18.6106 12.0808 18.4834 11.7687 18.3619 11.38C18.0654 11.7728 17.7949 12.0946 17.5652 12.4432C17.1587 13.061 16.8437 13.729 16.6595 14.4437C16.4349 15.3136 16.3157 16.1965 16.4062 17.1034C16.4855 17.8973 16.6098 18.6793 16.8168 19.4506C16.8637 19.6253 16.8237 19.8236 16.8237 20.0112C16.7973 20.014 16.7709 20.0168 16.7444 20.0195C16.7226 19.9513 16.6985 19.884 16.6794 19.8153C16.3417 18.6014 16.009 17.3865 15.6638 16.1749C15.5868 15.9038 15.4949 15.6299 15.3617 15.3833C15.1042 14.9065 15.0912 14.3934 15.0745 13.8779C15.0722 13.8106 15.0982 13.718 15.146 13.6765C15.8921 13.0264 16.1338 12.1661 16.1705 11.2297C16.2159 10.0711 15.9983 8.94475 15.7004 7.83133C15.4902 7.04478 15.2188 6.28267 14.7803 5.5888C14.7321 5.51273 14.6759 5.44173 14.578 5.30433C14.3739 5.81195 14.1642 6.25824 14.0134 6.7239C13.7053 7.67365 13.6241 8.65337 13.6668 9.64923C13.7095 10.6386 13.8983 11.5925 14.2825 12.505C14.4189 12.8286 14.598 13.1343 14.74 13.4556C14.8049 13.6022 14.8272 13.7668 14.869 13.9236C14.8407 13.9337 14.8128 13.9443 14.7845 13.9545C14.6514 13.6871 14.5145 13.4211 14.385 13.1518C13.6858 11.6963 12.82 10.3408 11.9231 8.99962C11.7505 8.74097 11.7876 8.34355 11.7324 8.00929C11.7287 7.98716 11.7589 7.95581 11.7793 7.93414C12.2075 7.48554 12.3435 6.92768 12.376 6.33523C12.4381 5.19691 12.1407 4.13651 11.6429 3.12497C11.1413 2.10514 10.5293 1.16322 9.64539 0.420935C9.60502 0.387279 9.56187 0.357311 9.47696 0.293225C9.4236 0.638088 9.34983 0.947911 9.33173 1.26142C9.23197 3.02216 9.43938 4.73633 10.281 6.31541C10.5669 6.85161 10.965 7.33109 11.3357 7.81796C11.538 8.08352 11.589 8.143 11.5784 8.55563C11.4034 8.33756 11.2508 8.15268 11.1037 7.96365C10.1702 6.76585 9.12386 5.66902 8.0089 4.63997C7.78247 4.43111 7.67529 4.26329 7.6804 3.94563C7.69107 3.26282 7.36024 2.69804 6.91342 2.19735C6.26616 1.47258 5.44212 1.0226 4.54198 0.691569C3.92348 0.464273 3.3022 0.242971 2.62988 0C2.73289 0.309823 2.81362 0.598899 2.92359 0.876449C3.46877 2.25405 4.30952 3.39238 5.68432 4.04706C6.10052 4.24531 6.56636 4.40576 7.02061 4.4408C7.46928 4.47584 7.79454 4.65426 8.09381 4.93181C9.00323 5.77506 9.85836 6.66995 10.6304 7.64092C10.6471 7.66213 10.6532 7.69209 10.6652 7.7216C10.3061 7.76955 10.2681 7.74096 10.1312 7.44682C9.7985 6.73127 9.20692 6.32371 8.47335 6.08258C7.75835 5.84791 7.03406 5.85805 6.30235 5.97331C5.65787 6.07474 5.01339 6.17387 4.29792 6.28498C4.54894 6.56253 4.75263 6.81841 4.98787 7.04202C5.95993 7.96826 7.10737 8.47126 8.47243 8.41409C9.03432 8.39058 9.56419 8.24904 10.0537 7.96273C10.134 7.9157 10.25 7.92077 10.3497 7.91847C10.417 7.91708 10.4894 7.96872 10.552 7.95673C10.8638 7.8968 11.0002 8.10288 11.1552 8.31036C12.0433 9.49985 12.8237 10.7553 13.522 12.0623C13.5652 12.143 13.6004 12.2274 13.6357 12.3118C13.6436 12.3302 13.6366 12.3547 13.6366 12.3763C13.3192 12.3823 13.2158 12.3049 13.1499 12.0222C12.8979 10.9383 12.1495 10.326 11.1366 10.0084C10.656 9.85763 10.1483 9.7668 9.64631 9.71562C8.91832 9.64093 8.18382 9.6271 7.3918 9.58377C7.5361 9.80922 7.65349 10.0079 7.78572 10.196C8.35503 11.0042 9.03849 11.6944 9.93492 12.1412C10.9005 12.6221 11.9018 12.8521 12.9708 12.4828C13.0594 12.4519 13.1731 12.4828 13.2733 12.4976C13.3243 12.505 13.3698 12.5557 13.4204 12.5612C13.805 12.6022 13.9447 12.8812 14.0867 13.1868C14.8694 14.877 15.4995 16.6207 15.9895 18.4156C15.9969 18.4428 15.9904 18.4741 15.9904 18.5064C15.6373 18.4013 15.5872 18.339 15.584 17.9909C15.5728 16.7507 14.9451 15.8697 13.947 15.1979C13.194 14.6912 12.3523 14.3745 11.5129 14.0513C11.1687 13.9185 10.8248 13.7844 10.4801 13.6516C10.4119 13.6253 10.3423 13.6032 10.2101 13.5566C10.3506 13.9531 10.4532 14.303 10.5966 14.6354C11.0142 15.6023 11.564 16.4824 12.3667 17.1883C13.065 17.8024 13.8371 18.2708 14.778 18.4128C14.7933 18.4151 14.8096 18.4202 14.824 18.4174C15.3005 18.3275 15.6703 18.5313 15.9997 18.8411C16.0521 18.8904 16.1157 18.949 16.1296 19.0131C16.2832 19.7222 16.447 20.4299 16.5704 21.1445C16.8191 22.5876 16.9629 24.0426 16.9866 25.5078C16.9866 25.535 16.9759 25.5622 16.9671 25.6051C16.7142 25.4092 16.6168 25.216 16.6725 24.879C16.8493 23.8107 16.5523 22.8315 15.9663 21.9338C15.333 20.9642 14.4351 20.2616 13.5299 19.5668C13.1582 19.2814 12.7926 18.9877 12.4117 18.688C12.4015 18.7143 12.3829 18.7388 12.3838 18.7627C12.4618 20.8928 13.1281 22.7835 14.6871 24.305C15.1395 24.7466 15.6786 25.0509 16.28 25.2552C16.3969 25.2948 16.4883 25.4124 16.5885 25.4977C16.6103 25.5161 16.6131 25.5572 16.6349 25.5751C17.0641 25.9352 17.0209 26.4226 16.9959 26.903C16.9597 27.5996 16.9541 28.3004 16.8697 28.9915C16.7412 30.0455 16.5565 31.0925 16.3941 32.1423C16.3741 32.27 16.3421 32.3954 16.3143 32.5286C16.0855 32.3133 16.0744 32.0496 16.1742 31.7979C16.3018 31.4761 16.4173 31.1331 16.4461 30.7919C16.5532 29.5222 16.0619 28.418 15.3654 27.4023C14.7929 26.5673 14.1605 25.7734 13.555 24.961C13.4269 24.7891 13.3021 24.6152 13.1285 24.3787C13.0766 24.8379 13.0102 25.2317 12.9912 25.6277C12.9323 26.8739 13.1086 28.0869 13.5962 29.2423C14.0528 30.3239 14.6569 31.3009 15.6675 31.9726C15.7617 32.0353 15.829 32.1483 15.887 32.2502C15.9468 32.3553 15.9584 32.4913 16.0285 32.5863C16.2331 32.8652 16.1783 33.146 16.099 33.4494C15.5733 35.4526 14.8532 37.3807 13.8681 39.2078C13.8542 39.2332 13.8361 39.2562 13.8162 39.2857C13.6719 38.933 13.69 38.8404 13.9145 38.5836C14.2969 38.1465 14.4347 37.6057 14.5572 37.0584C14.7887 36.0257 14.5887 35.0252 14.2658 34.0556C13.8797 32.897 13.419 31.7633 12.9722 30.5687C12.9137 30.6637 12.8794 30.7084 12.8566 30.7587C12.3806 31.8076 12.0943 32.9021 12.0567 34.0565C12.0127 35.4176 12.2562 36.7177 12.8961 37.9316C12.9815 38.0939 13.0682 38.265 13.1935 38.395C13.5206 38.7357 13.5141 39.1746 13.5846 39.5905C13.5981 39.6712 13.5624 39.7735 13.5188 39.8487C12.5574 41.5195 11.4146 43.0557 10.0532 44.4278C10.0384 44.443 10.0166 44.4513 9.99709 44.4633C9.9029 44.1157 9.95626 44.0041 10.2439 43.8187C10.7033 43.5232 11.0095 43.0935 11.2666 42.6228C11.7417 41.7523 11.8043 40.8026 11.738 39.8528C11.6535 38.6472 11.4916 37.4475 11.364 36.2447C11.3543 36.1548 11.3519 36.0639 11.3413 35.9012C11.1951 36.0639 11.08 36.1792 10.9798 36.306C10.0746 37.4475 9.50201 38.7279 9.31688 40.1779C9.16052 41.4056 9.26306 42.5891 9.68993 43.7666C9.83701 44.1724 9.85697 44.6601 9.4069 45.0571C8.014 46.2867 6.51068 47.3388 4.81156 48.1065C4.77815 48.1217 4.74057 48.1286 4.70345 48.1401C4.66401 47.8119 4.71876 47.7524 5.00643 47.7178C5.3869 47.6717 5.6885 47.455 5.98174 47.2286C6.7617 46.626 7.18857 45.8003 7.40757 44.8741C7.61497 43.9976 7.75788 43.106 7.92445 42.2203C7.98663 41.8906 8.0372 41.5587 8.09149 41.2277C8.10355 41.1544 8.11005 41.0801 8.07015 40.9547C7.74907 41.1576 7.415 41.342 7.10923 41.5656C5.65555 42.6302 4.84636 44.0894 4.56564 45.8358C4.48305 46.3513 4.56704 46.8916 4.54476 47.419C4.53316 47.6901 4.4631 47.9603 4.40139 48.2268C4.3884 48.2821 4.3021 48.3365 4.23807 48.3623C2.98716 48.8649 1.7084 49.2748 0.371655 49.4882C0.0811977 49.5348 0.00835228 49.6459 -0.000928879 50.0438C0.352167 49.9843 0.700159 49.9331 1.04537 49.8663C1.9984 49.6828 2.92173 49.3979 3.83579 49.0737C4.01767 49.0092 4.25013 49.0908 4.45939 49.0973C4.69092 49.1042 4.81527 49.2282 4.92802 49.4241C5.39758 50.2397 6.1613 50.6487 7.05076 50.8372C8.68864 51.1849 10.2681 50.9603 11.783 50.2771C12.0558 50.154 12.2887 49.9442 12.5397 49.7741C12.5416 49.7413 12.543 49.7091 12.5448 49.6763C12.0688 49.3559 11.6099 49.0064 11.1139 48.721C10.0523 48.1111 8.90486 47.799 7.66833 47.8617C6.86795 47.9022 6.13717 48.1761 5.43284 48.5325C5.27555 48.6122 5.12893 48.7155 4.96699 48.7837C4.85146 48.8326 4.71876 48.8405 4.59395 48.8667C4.58467 48.8386 4.57585 48.81 4.56657 48.7819C4.72572 48.7026 4.88347 48.6196 5.04494 48.544C6.54734 47.8409 7.91842 46.9373 9.15588 45.8395C9.43195 45.5947 9.75999 45.6537 10.0667 45.585C10.1015 45.5772 10.1599 45.633 10.1943 45.6712C10.7562 46.2964 11.4814 46.5117 12.2957 46.4864C13.6106 46.4453 14.7854 45.9824 15.886 45.295C16.4516 44.9418 16.9806 44.5495 17.3833 44.011C17.6019 43.7187 17.5898 43.7109 17.2627 43.5748C16.428 43.2277 15.5533 43.0396 14.656 43.0419C13.258 43.0451 11.9816 43.4347 10.9339 44.4047C10.6685 44.6505 10.4267 44.9206 10.1632 45.1682C10.0778 45.2484 9.95719 45.2918 9.85279 45.3517L9.80361 45.2839C9.87042 45.2139 9.93491 45.1419 10.004 45.0746C11.3106 43.8003 12.4089 42.3641 13.3958 40.8349C13.5559 40.5868 13.8978 40.454 14.1595 40.2728C14.179 40.2595 14.231 40.2816 14.2625 40.2977C15.3283 40.8321 16.3463 40.5891 17.2956 40.0326C18.3841 39.3945 19.2003 38.4582 19.8861 37.4148C20.3204 36.7546 20.5022 36.276 20.5732 35.7523C20.2039 35.7523 19.835 35.7237 19.4722 35.7583C18.7242 35.8297 18.0106 36.0321 17.3434 36.3899C16.4823 36.8519 15.7246 37.4402 15.1617 38.2373C14.8003 38.7491 14.5075 39.3088 14.1748 39.8418C14.095 39.969 13.9786 40.0737 13.8788 40.1889L13.806 40.1401C13.8366 40.0769 13.8635 40.0119 13.8983 39.9506C14.9506 38.0893 15.751 36.1248 16.3848 34.087C16.4758 33.7951 16.7235 33.5508 16.9077 33.2908C16.9295 33.2599 17.0075 33.2506 17.0553 33.2585C17.9958 33.4152 18.721 32.9938 19.3581 32.3843C20.1918 31.5867 20.7904 30.6213 21.2321 29.5673C21.4915 28.9491 21.7007 28.3082 21.8975 27.6674C21.9782 27.4037 21.9661 27.1118 21.9995 26.8034H22Z" fill="#231E1F"/>
</g>
<defs>
<clipPath id="clip0_676_1256">
<rect width="22" height="51" fill="white" transform="matrix(-1 0 0 1 22 0)"/>
</clipPath>
</defs>
</svg>
