<svg width="13" height="13" viewBox="0 0 13 13" fill="none" xmlns="http://www.w3.org/2000/svg">
<path id="Path 2520" d="M11.0766 11.0769H9.15042V8.06027C9.15042 7.34094 9.13759 6.41493 8.14861 6.41493C7.14538 6.41493 6.99188 7.19867 6.99188 8.0079V11.0767H5.06568V4.87332H6.91483V5.72107H6.94072C7.12577 5.40465 7.39319 5.14435 7.71447 4.96789C8.03576 4.79143 8.39889 4.70542 8.76519 4.71902C10.7175 4.71902 11.0774 6.00319 11.0774 7.67382L11.0766 11.0769ZM2.8923 4.02536C2.67122 4.0254 2.45509 3.95988 2.27125 3.83709C2.0874 3.71429 1.94411 3.53973 1.85947 3.33549C1.77483 3.13125 1.75265 2.9065 1.79574 2.68965C1.83883 2.4728 1.94526 2.27361 2.10156 2.11725C2.25786 1.96089 2.45701 1.85439 2.67383 1.81122C2.89066 1.76805 3.11541 1.79014 3.31967 1.87471C3.52394 1.95928 3.69854 2.10252 3.8214 2.28633C3.94425 2.47013 4.00985 2.68624 4.00989 2.90733C4.00992 3.05413 3.98103 3.19949 3.92488 3.33512C3.86873 3.47075 3.78642 3.594 3.68264 3.69782C3.57887 3.80163 3.45565 3.88399 3.32004 3.9402C3.18443 3.9964 3.03909 4.02534 2.8923 4.02536ZM3.85539 11.0769H1.92719V4.87332H3.85539V11.0769ZM12.0369 0.000885711H0.959286C0.707856 -0.00195178 0.465572 0.0951511 0.285697 0.270856C0.105821 0.446562 0.00306857 0.686494 0 0.93793V12.0619C0.00296355 12.3134 0.105656 12.5535 0.285525 12.7294C0.465395 12.9053 0.707731 13.0026 0.959286 12.9999H12.0369C12.289 13.0031 12.532 12.9061 12.7126 12.7302C12.8931 12.5543 12.9965 12.3139 13 12.0619V0.937128C12.9964 0.685193 12.893 0.444987 12.7124 0.269286C12.5318 0.0935854 12.2888 -0.00323994 12.0369 8.27785e-05" fill="#231E1F"/>
</svg>
