<svg xmlns="http://www.w3.org/2000/svg" xml:space="preserve" width="1500" height="1174" viewBox="0 0 1500 1174" data-version="1" data-id="lg_uofbZSnFZKK629Ui8n"><g id="outer-wrapper" data-padding="20" transform="matrix(1,0,0,1,0,0)"><g id="inner-wrapper" transform="matrix(0.9731903485254692,0,0,0.9731903485254692,10,15.737265415549587)"><rect width="113.886" height="255.144" x="15.169955419810748" y="-78.252" fill="none" rx="0" ry="0" transform="matrix(4.6 0 0 4.6 319.901 360.128)"></rect><path fill="#172b75" d="M694.7075949311295 910.9670000000001H598.3535949311295L387.38459493112947 355.144H477.6385949311295L599.8685949311295 691.394Q612.5545949311295 725.874 625.7245949311294 767.4459999999999Q638.9145949311295 809.038 643.9845949311294 834.3889999999999H647.5405949311294Q653.6205949311294 809.038 667.8205949311294 767.204T693.6975949311295 691.3939999999999L815.9075949311294 355.1439999999999H906.1815949311294Z "></path><rect width="87.492" height="159.592" x="30.63059079173311" y="-28.927838565022398" fill="none" rx="0" ry="0" transform="translate(606.56 361.178)scale(4.46)"></rect><path fill="#00b9f1" d="M953.2065949311293 440.004Q1016.4325949311294 440.004 1054.0655949311295 483.494T1091.6985949311295 614.29Q1091.6985949311295 671.981 1074.4275949311295 711.149Q1057.1565949311296 750.337 1025.8465949311294 770.395Q994.5365949311295 790.434 951.9545949311296 790.434Q925.1285949311296 790.434 904.7675949311295 783.344Q884.4055949311296 776.2539999999999 869.9025949311296 764.2139999999999Q855.4185949311295 752.1949999999999 845.8435949311296 737.9939999999999H842.1475949311296Q843.0765949311295 750.0339999999999 844.4505949311296 767.002Q845.8435949311296 783.95 845.8435949311296 796.615V935.4289999999999H794.3335949311296V446.165H836.5925949311296L843.3795949311295 496.14000000000004H845.8435949311296Q855.7215949311296 480.72700000000003 869.9025949311296 467.9200000000001Q884.1025949311296 455.11400000000003 904.6055949311294 447.5590000000001Q925.1285949311296 440.004 953.2065949311295 440.004M944.2585949311294 483.19200000000006Q909.0905949311295 483.19200000000006 887.6385949311295 496.7660000000001Q866.2055949311296 510.34100000000007 856.3285949311296 537.3280000000001Q846.4705949311297 564.315 845.8435949311296 605.038V614.916Q845.8435949311296 657.801 855.2575949311296 687.414T886.4055949311296 732.44Q908.1605949311295 747.8720000000001 944.8645949311294 747.8720000000001Q976.3355949311294 747.8720000000001 997.3035949311293 730.904Q1018.2915949311293 713.9359999999999 1028.6135949311292 683.556Q1038.9555949311293 653.155 1038.9555949311293 613.684Q1038.9555949311293 553.8309999999999 1015.6655949311294 518.5219999999999Q992.3755949311294 483.192 944.2585949311292 483.192 "></path><path fill="#172b75" d="M888.1235949311294 669.0450000000001H909.4255949311294L874.1625949311294 593.9190000000001H886.0095949311294C906.5215949311294 593.9190000000001 923.3865949311294 575.9390000000001 925.2455949311293 555.636H943.1325949311295L950.7985949311294 543.4639999999999H924.5015949311294C922.8295949311293 535.798 921.2495949311294 528.991 915.8365949311294 523.7180000000001H943.1785949311295L950.8445949311294 511.522H856.8555949311295L850.1885949311295 523.6949999999999H882.4085949311295C893.7455949311295 524.9490000000001 903.0835949311295 532.871 906.4055949311294 543.4639999999999H856.8555949311295L850.1885949311295 555.636H907.4045949311294C905.5925949311295 569.5740000000001 893.6985949311295 582.676 879.2495949311295 582.676H852.5355949311295V593.9190000000001 " opacity=".83" paint-order="stroke"></path><rect width="239" height="94.92" x="212.21959493112945" y="179.41200000000006" fill="none" rx="0" ry="0" transform="translate(656.74 674.23)"></rect><path d="M873.2495949311294 921.122Q873.2495949311294 917.262 875.3695949311294 915.702Q877.4795949311294 914.142 880.4695949311294 914.142Q883.3895949311294 914.142 885.4995949311294 915.702T887.6095949311294 921.122Q887.6095949311294 924.812 885.4995949311294 926.452T880.4695949311294 928.092Q877.4795949311294 928.092 875.3695949311294 926.452Q873.2495949311294 924.812 873.2495949311294 921.122M917.5995949311293 927.812Q910.7895949311294 927.812 905.9895949311294 925.332Q901.1995949311295 922.852 898.6895949311295 917.6419999999999Q896.1895949311295 912.4319999999999 896.1895949311295 904.3119999999999Q896.1895949311295 895.9019999999999 899.0395949311295 890.5919999999999T906.9595949311295 882.7819999999999Q912.0195949311294 880.2719999999999 918.7095949311295 880.2719999999999Q923.4695949311294 880.2719999999999 926.9295949311295 881.2019999999999Q930.3995949311295 882.1219999999998 932.9795949311294 883.3919999999999L929.2895949311294 893.0719999999999Q926.3395949311293 891.8819999999998 923.7995949311294 891.1219999999998Q921.2495949311294 890.3619999999999 918.7095949311292 890.3619999999999Q915.4295949311293 890.3619999999999 913.2495949311292 891.9019999999998Q911.0795949311293 893.4419999999998 910.0095949311292 896.5219999999998Q908.9495949311292 899.5919999999999 908.9495949311292 904.2319999999999Q908.9495949311292 908.7819999999998 910.0995949311293 911.7719999999998Q911.2395949311292 914.7719999999998 913.4195949311293 916.2219999999999Q915.5895949311293 917.6819999999999 918.7095949311292 917.6819999999999Q922.6095949311293 917.6819999999999 925.6395949311293 916.632Q928.6795949311293 915.592 931.5495949311291 913.702V924.412Q928.6795949311293 926.212 925.5395949311292 927.0120000000001T917.5995949311291 927.812M983.8295949311291 903.982Q983.8295949311291 909.722 982.2895949311292 914.1519999999999Q980.7595949311292 918.5819999999999 977.8195949311291 921.6419999999999Q974.8895949311293 924.6919999999999 970.7695949311292 926.252T961.4795949311292 927.8119999999999Q956.6395949311293 927.8119999999999 952.5995949311293 926.252T945.5895949311293 921.6419999999999Q942.6095949311293 918.582 940.9895949311292 914.1519999999999T939.3695949311293 903.982Q939.3695949311293 896.352 942.0795949311293 891.062T949.7895949311294 883.022T961.7295949311294 880.272Q968.1595949311293 880.272 973.1495949311293 883.022Q978.1295949311293 885.772 980.9795949311294 891.062T983.8295949311293 903.982M952.1295949311293 903.982Q952.1295949311293 908.492 953.1095949311293 911.572Q954.0995949311293 914.642 956.1895949311295 916.202T961.6395949311295 917.762Q964.9695949311294 917.762 967.0395949311294 916.202T970.0695949311294 911.572Q971.0395949311294 908.492 971.0395949311294 903.982Q971.0395949311294 899.432 970.0695949311294 896.4119999999999Q969.1095949311293 893.4019999999999 967.0195949311294 891.882Q964.9195949311295 890.362 961.5595949311294 890.362Q956.5995949311293 890.362 954.3595949311293 893.7719999999999Q952.1295949311293 897.1719999999999 952.1295949311293 903.982M1048.0195949311294 880.2719999999999Q1055.8095949311294 880.2719999999999 1059.8095949311294 884.2719999999999T1063.8095949311294 897.092V926.992H1051.2595949311294V900.212Q1051.2595949311294 895.292 1049.5795949311293 892.782Q1047.8995949311295 890.282 1044.3695949311293 890.282Q1039.4095949311293 890.282 1037.3195949311294 893.832T1035.2295949311294 903.982V926.992H1022.7195949311294V900.212Q1022.7195949311294 896.932 1021.9795949311294 894.712Q1021.2395949311294 892.502 1019.7195949311294 891.3919999999999T1015.8195949311294 890.2819999999999Q1012.3395949311293 890.2819999999999 1010.3495949311293 892.0219999999999Q1008.3595949311293 893.7719999999999 1007.5195949311294 897.1519999999999Q1006.6795949311293 900.5419999999999 1006.6795949311293 905.4219999999999V926.992H994.1695949311293V881.132H1003.7295949311292L1005.4095949311293 887.002H1006.0995949311293Q1007.4995949311292 884.622 1009.6095949311293 883.1419999999999Q1011.7195949311292 881.6719999999999 1014.2695949311292 880.972Q1016.8095949311291 880.2719999999999 1019.4295949311293 880.2719999999999Q1024.4795949311292 880.2719999999999 1027.9895949311292 881.9119999999999Q1031.4895949311292 883.5519999999999 1033.379594931129 887.002H1034.4895949311292Q1036.5395949311292 883.472 1040.2895949311292 881.872T1048.0195949311292 880.2719999999999 "></path></g><rect width="746" height="1174" x="377" y="0" id="space-saver" fill="transparent" stroke="transparent"></rect></g></svg>