<svg xmlns="http://www.w3.org/2000/svg" xml:space="preserve" width="1500" height="265" viewBox="0 0 1500 265" data-version="1" data-id="lg_uofbZSnFZKK629Ui8n"><g id="outer-wrapper" data-padding="20" transform="matrix(1,0,0,1,0,0)"><g id="inner-wrapper" transform="matrix(0.9751861042183623,0,0,0.9751861042183623,10,3.2878411910670025)"><rect width="345" height="257.64" x="166.21312285382538" y="-374.684077669903" fill="none" rx="0" ry="0" transform="translate(184.9 385.74)scale(1.03)"></rect><path fill="#172b75" d="M425.2545165394401 205.64999999999995H403.5045165394401L355.8745165394401 80.17999999999998H376.2545165394401L403.8445165394401 156.08Q406.7045165394401 163.85999999999999 409.6845165394401 173.25000000000003Q412.65451653944007 182.64000000000001 413.8045165394401 188.36000000000004H414.6045165394401Q415.9745165394401 182.64000000000001 419.1845165394401 173.19000000000003Q422.3945165394401 163.75000000000003 425.02451653944007 156.08L452.6145165394401 80.18000000000004H472.9945165394401ZM550.0345165394401 77.87999999999997Q553.8145165394401 77.87999999999997 557.9345165394402 78.27999999999994T565.2645165394401 79.35999999999993L562.85451653944 96.99999999999991Q559.7645165394401 96.18999999999991 555.9845165394402 95.73999999999992Q552.2145165394402 95.27999999999994 548.89451653944 95.27999999999994Q541.3345165394401 95.27999999999994 534.63451653944 98.30999999999992Q527.9445165394402 101.34999999999994 522.9045165394402 107.0099999999999Q517.86451653944 112.67999999999992 515.0045165394401 120.6399999999999Q512.14451653944 128.5899999999999 512.14451653944 138.3199999999999V205.6399999999999H493.02451653944007V80.16999999999999H508.82451653944014L510.8845165394401 103.28999999999999H511.68451653944015Q515.5745165394401 96.30999999999997 521.0745165394401 90.53Q526.5645165394401 84.75000000000003 533.8345165394401 81.30999999999997Q541.10451653944 77.87999999999997 550.0345165394401 77.87999999999997M697.0245165394401 142.67Q697.0245165394401 158.12999999999997 693.0145165394401 170.25999999999996Q689.0045165394401 182.39999999999995 681.4545165394402 190.74999999999997Q673.8945165394402 199.10999999999999 663.1945165394402 203.51999999999995Q652.4845165394402 207.92999999999998 638.9745165394402 207.92999999999998Q626.3845165394403 207.92999999999998 615.9145165394402 203.51999999999995Q605.4345165394402 199.10999999999993 597.8245165394401 190.74999999999997Q590.2045165394402 182.39999999999995 586.0345165394401 170.25999999999996Q581.85451653944 158.12999999999997 581.85451653944 142.67Q581.85451653944 122.06999999999996 588.8345165394401 107.58000000000001Q595.8145165394401 93.1 608.8145165394401 85.49000000000004Q621.8045165394401 77.88000000000002 639.7745165394401 77.88000000000002Q656.9545165394402 77.88000000000002 669.8345165394401 85.55000000000004T689.86451653944 107.70000000000002Q697.0245165394401 122.18000000000004 697.0245165394401 142.67000000000004M601.5445165394401 142.67000000000004Q601.5445165394401 157.78000000000006 605.5545165394401 168.89000000000007Q609.5545165394401 179.9900000000001 617.9145165394402 186.0600000000001T639.4345165394402 192.13000000000008Q652.4845165394402 192.13000000000008 660.90451653944 186.0600000000001Q669.3145165394401 179.9900000000001 673.3245165394401 168.89000000000007Q677.3245165394401 157.78000000000006 677.3245165394401 142.67000000000004Q677.3245165394401 127.68000000000004 673.3245165394401 116.74000000000004Q669.3145165394401 105.81000000000003 660.9545165394402 99.86000000000004Q652.60451653944 93.90000000000006 639.3245165394401 93.90000000000006Q619.7445165394402 93.90000000000006 610.64451653944 106.84000000000006T601.5445165394401 142.67000000000004 "></path><rect width="226" height="151.42" x="125.95514831468489" y="-249.1620547945206" fill="none" rx="0" ry="0" transform="translate(527.82 363.9)scale(1.46)"></rect><path fill="#00b9f1" d="M776.79451653944 64.72999999999999Q796.4045165394401 64.72999999999999 808.06451653944 78.21000000000001Q819.73451653944 91.69000000000003 819.73451653944 118.76000000000002Q819.73451653944 136.64000000000001 814.37451653944 148.78Q809.02451653944 160.92999999999998 799.31451653944 167.14000000000001Q789.61451653944 173.36000000000004 776.4145165394401 173.36000000000004Q768.0945165394401 173.36000000000004 761.78451653944 171.16000000000005T750.98451653944 165.23000000000005Q746.48451653944 161.50000000000003 743.52451653944 157.10000000000005H742.3745165394402Q742.6645165394401 160.83000000000007 743.0945165394402 166.09000000000006T743.5245165394401 175.27000000000007V218.30000000000004H727.5545165394401V66.63999999999996H740.6545165394401L742.7545165394401 82.12999999999997H743.5245165394401Q746.5845165394402 77.35 750.98451653944 73.37999999999997Q755.3745165394402 69.40999999999994 761.73451653944 67.06999999999996T776.7945165394401 64.72999999999999M774.0245165394401 78.11999999999998Q763.1245165394402 78.11999999999998 756.4745165394401 82.31999999999996Q749.8345165394402 86.52999999999994 746.7745165394401 94.89999999999995Q743.7145165394401 103.25999999999996 743.5245165394401 115.88999999999996V118.94999999999996Q743.5245165394401 132.23999999999998 746.4345165394401 141.41999999999993Q749.3545165394402 150.59999999999994 756.0945165394402 155.3799999999999T774.2145165394402 160.15999999999988Q783.9745165394402 160.15999999999988 790.4745165394402 154.8999999999999T800.1745165394401 140.21999999999989Q803.3845165394401 130.79999999999987 803.3845165394401 118.55999999999986Q803.3845165394401 100.00999999999985 796.1645165394401 89.05999999999986Q788.9445165394401 78.11999999999986 774.0245165394401 78.11999999999986M886.5745165394402 64.92999999999986Q905.3145165394402 64.92999999999986 914.4045165394401 73.33999999999989Q923.4845165394403 81.7599999999999 923.4845165394403 100.2099999999999V171.4499999999999H911.9145165394401L908.8545165394402 155.9599999999999H908.0845165394402Q903.6945165394403 161.6999999999999 898.9045165394404 165.5699999999999Q894.1245165394404 169.4499999999999 887.8645165394404 171.40999999999988T872.5145165394403 173.36999999999986Q862.9545165394403 173.36999999999986 855.5445165394402 170.01999999999984T843.87451653944 159.87999999999997Q839.62451653944 153.08999999999995 839.62451653944 142.67Q839.62451653944 126.98999999999998 852.05451653944 118.56999999999996Q864.48451653944 110.15999999999994 889.9245165394401 109.38999999999996L907.99451653944 108.62999999999997V102.21999999999994Q907.99451653944 88.63999999999996 902.1645165394401 83.18999999999991Q896.32451653944 77.73999999999992 885.7145165394401 77.73999999999992Q877.49451653944 77.73999999999992 870.03451653944 80.12999999999991T855.87451653944 85.77999999999994L851.00451653944 73.72999999999993Q858.07451653944 70.08999999999995 867.25451653944 67.5099999999999T886.5745165394402 64.92999999999992M907.8045165394402 129.47999999999993V119.81999999999991L891.8345165394402 120.48999999999992Q872.23451653944 121.24999999999991 864.1945165394401 126.8899999999999Q856.1645165394401 132.53999999999988 856.1645165394401 142.85999999999993Q856.1645165394401 151.84999999999994 861.6145165394402 156.14999999999995Q867.0645165394402 160.45999999999995 876.0545165394402 160.45999999999995Q890.0145165394403 160.45999999999995 898.9045165394404 152.70999999999995Q907.8045165394402 144.96999999999994 907.8045165394402 129.47999999999993M981.6245165394404 171.63999999999996L939.6445165394404 66.64999999999995H956.6645165394403L979.8045165394402 127.46999999999994Q981.8145165394402 132.81999999999996 983.5345165394402 137.74999999999991Q985.2545165394403 142.66999999999993 986.5945165394402 147.16999999999993Q987.9345165394403 151.65999999999994 988.6945165394403 155.86999999999992H989.3645165394402Q990.7045165394403 151.08999999999995 993.1945165394403 143.28999999999994Q995.6845165394403 135.49999999999991 998.5445165394402 127.36999999999992L1020.4445165394403 66.64999999999995H1037.5645165394403L991.9545165394403 186.84999999999994Q988.3145165394402 196.50999999999996 983.4845165394403 203.67999999999992T971.7745165394402 214.71999999999994Q964.8845165394401 218.59999999999994 955.1345165394401 218.59999999999994Q950.6445165394401 218.59999999999994 947.1945165394401 218.06999999999996Q943.75451653944 217.54 941.2745165394402 216.86999999999998V204.15999999999994Q943.3745165394402 204.62999999999997 946.3845165394401 205.01999999999995Q949.3945165394401 205.39999999999995 952.6445165394401 205.39999999999995Q958.5745165394402 205.39999999999995 962.9245165394401 203.14999999999995Q967.2845165394402 200.90999999999994 970.4345165394401 196.59999999999994Q973.5945165394402 192.29999999999993 975.8845165394401 186.36999999999992Z "></path><rect width="115" height="47.46" x="277.95626590330755" y="-267.2300000000001" fill="none" rx="0" ry="0" transform="translate(753.11 298.8)scale(1.04)"></rect><path fill="#172b75" d="M1044.1145165394403 55.71999999999994Q1044.1145165394403 53.70999999999995 1045.2145165394404 52.89999999999995T1047.8745165394403 52.08999999999995Q1049.3845165394403 52.08999999999995 1050.4845165394404 52.89999999999995T1051.5845165394403 55.71999999999994Q1051.5845165394403 57.63999999999996 1050.4845165394404 58.489999999999924Q1049.3845165394403 59.34999999999994 1047.8745165394403 59.34999999999994Q1046.3145165394403 59.34999999999994 1045.2145165394404 58.489999999999924Q1044.1145165394403 57.6399999999999 1044.1145165394403 55.71999999999994M1067.1945165394404 59.19999999999996Q1063.6445165394402 59.19999999999996 1061.1445165394402 57.90999999999994Q1058.6545165394405 56.61999999999992 1057.3545165394403 53.90999999999994Q1056.0445165394403 51.19999999999996 1056.0445165394403 46.96999999999994Q1056.0445165394403 42.58999999999995 1057.5345165394406 39.829999999999956Q1059.0145165394406 37.059999999999974 1061.6545165394405 35.75999999999996Q1064.2845165394406 34.45999999999995 1067.7645165394406 34.45999999999995Q1070.2445165394406 34.45999999999995 1072.0445165394403 34.93999999999997T1075.1945165394404 36.079999999999956L1073.2745165394404 41.119999999999976Q1071.7345165394404 40.49999999999997 1070.4145165394405 40.109999999999985Q1069.0845165394403 39.71000000000001 1067.7645165394406 39.71000000000001Q1066.0545165394406 39.71000000000001 1064.9245165394404 40.51000000000002T1063.2445165394406 42.91Q1062.6845165394407 44.51000000000002 1062.6845165394407 46.92999999999998Q1062.6845165394407 49.29999999999998 1063.2845165394406 50.849999999999994Q1063.8845165394405 52.41 1065.0145165394406 53.16999999999999T1067.7645165394406 53.92999999999998Q1069.7945165394406 53.92999999999998 1071.3745165394407 53.37999999999997Q1072.9545165394406 52.83999999999995 1074.4445165394407 51.859999999999985V57.42999999999998Q1072.9545165394406 58.369999999999976 1071.3245165394405 58.78Q1069.6845165394407 59.20000000000002 1067.1945165394407 59.20000000000002M1101.6645165394407 46.80000000000004Q1101.6645165394407 49.79000000000005 1100.8645165394407 52.09000000000006Q1100.0645165394408 54.40000000000006 1098.5345165394406 55.99000000000004T1094.8645165394407 58.390000000000015Q1092.7145165394409 59.20000000000002 1090.0245165394408 59.20000000000002Q1087.5145165394406 59.20000000000002 1085.4045165394407 58.390000000000015Q1083.3045165394406 57.58000000000001 1081.7545165394408 55.99000000000004Q1080.2145165394409 54.40000000000006 1079.3645165394407 52.09000000000006Q1078.5245165394408 49.79000000000005 1078.5245165394408 46.80000000000004Q1078.5245165394408 42.83000000000001 1079.9345165394407 40.07000000000002Q1081.3445165394405 37.32000000000002 1083.9445165394407 35.890000000000015T1090.1545165394407 34.46000000000001Q1093.5045165394408 34.46000000000001 1096.1045165394407 35.890000000000015Q1098.6945165394409 37.32000000000002 1100.174516539441 40.07000000000002Q1101.6645165394407 42.83000000000001 1101.6645165394407 46.80000000000004M1085.1645165394407 46.80000000000004Q1085.1645165394407 49.15000000000006 1085.674516539441 50.75000000000003T1087.2745165394408 53.16000000000005T1090.114516539441 53.970000000000056Q1091.844516539441 53.970000000000056 1092.924516539441 53.16000000000005Q1093.9945165394408 52.35000000000005 1094.5045165394408 50.75000000000003Q1095.0045165394408 49.150000000000006 1095.0045165394408 46.80000000000004Q1095.0045165394408 44.430000000000035 1094.5045165394408 42.86000000000004Q1093.9945165394408 41.29000000000005 1092.9145165394407 40.50000000000003Q1091.8245165394408 39.71000000000001 1090.0745165394408 39.71000000000001Q1087.4845165394408 39.71000000000001 1086.3245165394408 41.47999999999999T1085.1645165394407 46.79999999999998M1135.0645165394408 34.44999999999996Q1139.1245165394407 34.44999999999996 1141.2045165394406 36.529999999999944T1143.2845165394408 43.19999999999996V58.75999999999996H1136.7545165394408V44.819999999999965Q1136.7545165394408 42.25999999999996 1135.8745165394407 40.95999999999995Q1135.0045165394408 39.65999999999994 1133.1645165394407 39.65999999999994Q1130.5845165394408 39.65999999999994 1129.4945165394408 41.50999999999996Q1128.404516539441 43.34999999999994 1128.404516539441 46.789999999999935V58.75999999999996H1121.8945165394407V44.819999999999965Q1121.8945165394407 43.119999999999976 1121.5145165394408 41.95999999999995Q1121.1245165394407 40.809999999999974 1120.3345165394408 40.239999999999924Q1119.5445165394408 39.65999999999994 1118.3145165394408 39.65999999999994Q1116.4945165394408 39.65999999999994 1115.4645165394409 40.569999999999965Q1114.424516539441 41.46999999999994 1113.9845165394408 43.22999999999999Q1113.554516539441 44.99999999999997 1113.554516539441 47.53999999999999V58.75999999999996H1107.0445165394408V34.89999999999995H1112.014516539441L1112.884516539441 37.94999999999996H1113.2545165394408Q1113.974516539441 36.70999999999995 1115.074516539441 35.93999999999997Q1116.174516539441 35.17999999999998 1117.494516539441 34.809999999999974Q1118.824516539441 34.44999999999996 1120.1845165394411 34.44999999999996Q1122.814516539441 34.44999999999996 1124.634516539441 35.29999999999998Q1126.464516539441 36.16 1127.4445165394409 37.94999999999996H1128.024516539441Q1129.084516539441 36.119999999999976 1131.044516539441 35.279999999999944Q1132.994516539441 34.44999999999996 1135.064516539441 34.44999999999996 "></path><rect width="461.447" height="33.9" x="104.73226590330773" y="-260.45000000000005" fill="none" rx="0" ry="0" transform="translate(360.67 304.97)scale(1.04)"></rect><path fill="#172b75" d="M478.2445165394401 61.319999999999965Q475.9845165394401 61.319999999999965 474.2645165394401 60.38999999999996T471.5845165394401 57.559999999999974Q470.6245165394401 55.64999999999995 470.6245165394401 52.75999999999996Q470.6245165394401 49.71999999999994 471.6345165394401 47.789999999999935Q472.65451653944007 45.85999999999993 474.4345165394401 44.92999999999992T478.4945165394401 43.999999999999915Q479.7445165394401 43.999999999999915 480.90451653944007 44.259999999999906Q482.0745165394401 44.509999999999906 482.8245165394401 44.8899999999999L482.05451653944004 47.009999999999906Q481.29451653944005 46.6999999999999 480.29451653944005 46.459999999999894Q479.29451653944005 46.209999999999894 478.42451653944005 46.209999999999894Q476.6945165394401 46.209999999999894 475.54451653944005 46.959999999999894Q474.3845165394401 47.709999999999894 473.8145165394401 49.15999999999988T473.2445165394401 52.719999999999885Q473.2445165394401 54.74999999999986 473.8045165394401 56.18999999999991Q474.3545165394401 57.61999999999992 475.46451653944007 58.36999999999992Q476.5645165394401 59.12999999999991 478.2345165394401 59.12999999999991Q479.55451653944004 59.12999999999991 480.6245165394401 58.84999999999994Q481.69451653944003 58.55999999999992 482.56451653944004 58.17999999999992V60.43999999999991Q481.72451653944006 60.86999999999992 480.69451653944003 61.09999999999994Q479.66451653944006 61.319999999999965 478.2445165394401 61.319999999999965M525.2545165394401 52.62999999999997Q525.2545165394401 54.68999999999997 524.7145165394402 56.309999999999974Q524.18451653944 57.91999999999999 523.17451653944 59.03999999999999Q522.17451653944 60.150000000000006 520.7445165394402 60.73999999999998Q519.3145165394401 61.319999999999965 517.5245165394401 61.319999999999965Q515.8445165394401 61.319999999999965 514.44451653944 60.73999999999998Q513.0545165394401 60.150000000000006 512.0345165394401 59.03999999999999Q511.02451653944007 57.91999999999999 510.46451653944007 56.309999999999974Q509.91451653944006 54.68999999999997 509.91451653944006 52.62999999999997Q509.91451653944006 49.88999999999996 510.84451653944006 47.95999999999995T513.5045165394401 45.01999999999995Q515.2345165394402 43.99999999999997 517.62451653944 43.99999999999997Q519.91451653944 43.99999999999997 521.62451653944 45.029999999999944Q523.3445165394401 46.049999999999926 524.2945165394401 47.97999999999993Q525.2545165394401 49.89999999999995 525.2545165394401 52.62999999999991M512.5345165394401 52.62999999999991Q512.5345165394401 54.64999999999989 513.0645165394401 56.11999999999992Q513.60451653944 57.59999999999994 514.7145165394402 58.40999999999994T517.5845165394401 59.21999999999994Q519.3145165394401 59.21999999999994 520.4445165394402 58.40999999999994Q521.5645165394401 57.59999999999994 522.0945165394401 56.11999999999992Q522.62451653944 54.64999999999989 522.62451653944 52.62999999999991Q522.62451653944 50.6399999999999 522.0945165394401 49.17999999999992T520.4445165394402 46.92999999999992Q519.3345165394401 46.1399999999999 517.5645165394401 46.1399999999999Q514.9545165394402 46.1399999999999 513.7445165394402 47.85999999999993T512.5345165394401 52.62999999999991M565.2145165394402 44.30999999999992H567.7545165394401V61.0199999999999H565.6845165394402L565.3145165394401 58.669999999999874H565.1845165394402Q564.66451653944 59.53999999999988 563.8345165394401 60.12999999999985Q563.0145165394401 60.729999999999876 561.9845165394402 61.02999999999983Q560.9545165394402 61.31999999999985 559.7945165394401 61.31999999999985Q557.8145165394401 61.31999999999985 556.4745165394402 60.679999999999865T554.4545165394402 58.69999999999985T553.7745165394401 55.25999999999985V44.30999999999986H556.3345165394401V55.06999999999985Q556.3345165394401 57.159999999999826 557.2845165394401 58.189999999999856Q558.2245165394402 59.21999999999983 560.16451653944 59.21999999999983Q562.0245165394401 59.21999999999983 563.12451653944 58.51999999999984Q564.2345165394402 57.81999999999985 564.7245165394402 56.44999999999985Q565.2145165394402 55.08999999999983 565.2145165394402 53.10999999999987ZM605.35451653944 43.999999999999915Q608.3245165394401 43.999999999999915 609.85451653944 45.459999999999894Q611.37451653944 46.919999999999874 611.37451653944 50.12999999999991V61.0199999999999H608.87451653944V50.29999999999987Q608.87451653944 48.209999999999894 607.9245165394402 47.179999999999865Q606.9745165394402 46.139999999999844 605.0045165394401 46.139999999999844Q602.2245165394402 46.139999999999844 601.10451653944 47.70999999999984Q599.9745165394402 49.27999999999983 599.9745165394402 52.26999999999984V61.01999999999984H597.4445165394402V44.30999999999986H599.4845165394402L599.86451653944 46.719999999999885H600.0045165394401Q600.5345165394401 45.8299999999999 601.35451653944 45.229999999999876Q602.18451653944 44.62999999999985 603.20451653944 44.31999999999985Q604.2245165394402 43.99999999999986 605.35451653944 43.99999999999986M646.3245165394401 59.24999999999986Q646.94451653944 59.24999999999986 647.60451653944 59.139999999999844Q648.2545165394399 59.03999999999982 648.66451653944 58.87999999999985V60.84999999999988Q648.22451653944 61.04999999999987 647.44451653944 61.189999999999856Q646.65451653944 61.31999999999985 645.90451653944 61.31999999999985Q644.5845165394401 61.31999999999985 643.5045165394399 60.85999999999987Q642.41451653944 60.389999999999844 641.7645165394399 59.27999999999989Q641.12451653944 58.169999999999874 641.12451653944 56.1999999999999V46.28999999999988H638.7445165394399V45.05999999999986L641.13451653944 44.06999999999985L642.14451653944 40.439999999999856H643.66451653944V44.30999999999986H648.5645165394399V46.28999999999988H643.66451653944V56.11999999999986Q643.66451653944 57.69999999999985 644.39451653944 58.469999999999885Q645.11451653944 59.24999999999986 646.3245165394401 59.24999999999986M707.0145165394399 52.62999999999985Q707.0145165394399 54.689999999999856 706.4845165394399 56.30999999999986Q705.94451653944 57.919999999999874 704.94451653944 59.03999999999988Q703.93451653944 60.14999999999989 702.5145165394399 60.73999999999987Q701.0845165394401 61.31999999999985 699.2845165394399 61.31999999999985Q697.60451653944 61.31999999999985 696.21451653944 60.73999999999987Q694.8145165394401 60.14999999999989 693.8045165394399 59.03999999999988Q692.7945165394399 57.919999999999874 692.2345165394399 56.30999999999986Q691.67451653944 54.689999999999856 691.67451653944 52.62999999999985Q691.67451653944 49.889999999999844 692.60451653944 47.95999999999984T695.2645165394399 45.01999999999984Q696.9945165394399 43.99999999999986 699.39451653944 43.99999999999986Q701.68451653944 43.99999999999986 703.39451653944 45.02999999999983Q705.11451653944 46.04999999999981 706.0645165394401 47.97999999999982Q707.0145165394399 49.899999999999835 707.0145165394399 52.6299999999998M694.3045165394401 52.6299999999998Q694.3045165394401 54.64999999999978 694.8345165394401 56.119999999999806Q695.36451653944 57.599999999999824 696.4845165394399 58.409999999999826Q697.5945165394401 59.21999999999983 699.3445165394401 59.21999999999983Q701.0845165394401 59.21999999999983 702.20451653944 58.409999999999826T703.86451653944 56.119999999999806Q704.39451653944 54.64999999999978 704.39451653944 52.6299999999998Q704.39451653944 50.63999999999979 703.86451653944 49.17999999999981Q703.3245165394401 47.71999999999983 702.21451653944 46.92999999999981T699.3345165394401 46.13999999999979Q696.72451653944 46.13999999999979 695.5145165394401 47.859999999999815T694.3045165394401 52.6299999999998M735.5245165394401 43.9999999999998Q738.4945165394402 43.9999999999998 740.0245165394401 45.45999999999978Q741.5445165394401 46.91999999999976 741.5445165394401 50.1299999999998V61.01999999999978H739.0445165394401V50.299999999999756Q739.0445165394401 48.20999999999978 738.0945165394401 47.17999999999975Q737.14451653944 46.13999999999973 735.17451653944 46.13999999999973Q732.40451653944 46.13999999999973 731.2745165394401 47.709999999999724T730.14451653944 52.269999999999726V61.019999999999726H727.61451653944V44.30999999999975H729.6545165394402L730.0345165394401 46.71999999999977H730.1745165394402Q730.7045165394402 45.829999999999785 731.5345165394401 45.22999999999976Q732.35451653944 44.62999999999974 733.37451653944 44.31999999999974Q734.39451653944 43.999999999999744 735.5245165394401 43.999999999999744M801.9845165394402 38.71999999999977H804.5645165394401V53.13999999999979Q804.5645165394401 55.4999999999998 803.60451653944 57.34999999999977Q802.65451653944 59.18999999999974 800.7345165394402 60.249999999999744T795.91451653944 61.30999999999975Q791.7845165394401 61.30999999999975 789.62451653944 59.06999999999974Q787.4745165394402 56.82999999999973 787.4745165394402 53.07999999999973V38.719999999999715H790.0745165394401V53.15999999999971Q790.0745165394401 55.9899999999997 791.5745165394401 57.52999999999972Q793.0845165394401 59.06999999999974 796.0645165394401 59.06999999999974Q798.11451653944 59.06999999999974 799.4145165394402 58.32999999999973T801.35451653944 56.259999999999735Q801.9845165394402 54.92999999999975 801.9845165394402 53.16999999999976ZM845.2245165394402 56.4399999999998Q845.2245165394402 58.04999999999981 844.42451653944 59.13999999999979T842.13451653944 60.76999999999978Q840.64451653944 61.319999999999794 838.5945165394401 61.319999999999794Q836.8345165394401 61.319999999999794 835.5545165394401 61.04999999999981Q834.2745165394401 60.76999999999984 833.3145165394401 60.26999999999984V57.939999999999856Q834.3345165394401 58.439999999999856 835.7545165394399 58.84999999999988Q837.17451653944 59.2699999999999 838.65451653944 59.2699999999999Q840.8145165394401 59.2699999999999 841.7945165394399 58.55999999999992Q842.7645165394399 57.85999999999993 842.7645165394399 56.65999999999994Q842.7645165394399 55.96999999999994 842.37451653944 55.44999999999996Q841.9945165394399 54.91999999999999 841.0745165394401 54.41999999999999Q840.16451653944 53.92999999999998 838.5445165394401 53.33000000000001Q836.94451653944 52.72 835.7745165394401 52.12000000000003Q834.61451653944 51.52000000000001 833.97451653944 50.650000000000006Q833.3445165394401 49.78 833.3445165394401 48.390000000000015Q833.3445165394401 46.28 835.0645165394401 45.140000000000015Q836.7745165394401 44.00000000000003 839.5645165394401 44.00000000000003Q841.0745165394401 44.00000000000003 842.39451653944 44.30000000000004T844.85451653944 45.10000000000005L844.0045165394399 47.130000000000024Q842.96451653944 46.690000000000026 841.7945165394401 46.380000000000024Q840.61451653944 46.08000000000001 839.39451653944 46.08000000000001Q837.64451653944 46.08000000000001 836.70451653944 46.66Q835.7745165394401 47.23999999999998 835.7745165394401 48.23999999999998Q835.7745165394401 49.01999999999995 836.20451653944 49.51999999999995Q836.63451653944 50.029999999999944 837.60451653944 50.46999999999994Q838.5645165394401 50.90999999999994 840.13451653944 51.50999999999996Q841.70451653944 52.079999999999956 842.8445165394401 52.69999999999996T844.60451653944 54.19999999999996Q845.22451653944 55.069999999999965 845.22451653944 56.43999999999997 "></path></g><rect width="806" height="265" x="347" y="0" id="space-saver" fill="transparent" stroke="transparent"></rect></g></svg>