<svg width="15" height="16" viewBox="0 0 15 16" fill="none" xmlns="http://www.w3.org/2000/svg">
<path fill-rule="evenodd" clip-rule="evenodd" d="M14.1862 15.02C13.9953 15.2111 13.6772 15.2111 13.4705 15.02L10.1148 11.6611C9.04924 12.5685 7.66561 13.1256 6.13885 13.1256C2.75135 13.1256 0 10.3716 0 6.98078C0 3.58997 2.75135 0.835938 6.13885 0.835938C9.52635 0.835938 12.2777 3.58997 12.2777 6.98078C12.2777 8.49312 11.7211 9.87809 10.8146 10.9606L14.1703 14.3196C14.377 14.4947 14.377 14.8131 14.1862 15.02ZM11.2758 6.98078C11.2758 4.14715 8.98563 1.85477 6.15476 1.85477C3.32389 1.85477 1.03374 4.14715 1.03374 6.98078C1.03374 9.81442 3.32389 12.1068 6.15476 12.1068C8.96972 12.1068 11.2758 9.7985 11.2758 6.98078Z" fill="#231E1F"/>
</svg>
