<svg width="19" height="19" viewBox="0 0 19 19" fill="none" xmlns="http://www.w3.org/2000/svg">
<path d="M3.69984 8.2626C5.1716 11.155 7.54277 13.516 10.4352 14.9979L12.6837 12.7494C12.9597 12.4735 13.3685 12.3815 13.7262 12.5041C14.8709 12.8823 16.1076 13.0867 17.375 13.0867C17.9371 13.0867 18.397 13.5466 18.397 14.1088V17.6757C18.397 18.2379 17.9371 18.6978 17.375 18.6978C7.77785 18.6978 0 10.9199 0 1.32284C0 0.760706 0.459925 0.300781 1.02206 0.300781H4.59925C5.16138 0.300781 5.62131 0.760706 5.62131 1.32284C5.62131 2.60041 5.82572 3.82687 6.20388 4.97158C6.31631 5.3293 6.23454 5.7279 5.94837 6.01407L3.69984 8.2626Z" fill="#231E1F"/>
</svg>
