<svg width="17" height="11" viewBox="0 0 17 11" fill="none" xmlns="http://www.w3.org/2000/svg">
<path id="Vector" d="M16.6542 1.72945C16.5574 1.39769 16.3683 1.09514 16.1058 0.851906C15.8432 0.608672 15.5163 0.433239 15.1575 0.343069C13.8274 0.00550109 8.50588 5.96357e-06 8.50588 5.96357e-06C8.50588 5.96357e-06 3.18525 -0.00548948 1.85424 0.317162C1.49573 0.411482 1.16947 0.589396 0.906791 0.833824C0.644109 1.07825 0.453823 1.38099 0.354201 1.71296C0.003399 2.94234 1.24449e-06 5.49215 1.24449e-06 5.49215C1.24449e-06 5.49215 -0.00339634 8.05452 0.344857 9.27133C0.540219 9.94411 1.11356 10.4756 1.84235 10.6569C3.1861 10.9945 8.49314 11 8.49314 11C8.49314 11 13.8146 11.0055 15.1448 10.6836C15.5037 10.5936 15.8309 10.4186 16.0941 10.1758C16.3574 9.93311 16.5475 9.63107 16.6457 9.2996C16.9973 8.07101 16.9999 5.52198 16.9999 5.52198C16.9999 5.52198 17.0169 2.95882 16.6542 1.72945ZM6.80369 7.85434L6.80794 3.14409L11.2308 5.50314L6.80369 7.85434Z" fill="#231E1F"/>
</svg>
